<mxfile host="app.diagrams.net" modified="2021-04-20T17:08:12.199Z" agent="5.0 (Windows NT 10.0; Win64; x64) AppleWebKit/537.36 (KHTML, like Gecko) Chrome/89.0.4389.128 Safari/537.36" etag="bT33HUSjM-SHvpNWuqUu" version="14.6.3" type="github">
  <diagram id="2oAOjW0IkgDWgNlKLEwU" name="mobile-app-landing page">
    <mxGraphModel dx="2071" dy="692" grid="1" gridSize="10" guides="1" tooltips="1" connect="1" arrows="1" fold="1" page="1" pageScale="1" pageWidth="850" pageHeight="1400" math="0" shadow="0">
      <root>
        <mxCell id="0" />
        <mxCell id="1" parent="0" />
        <mxCell id="FI9FSAnp2MX3LIdGFpVo-60" style="edgeStyle=orthogonalEdgeStyle;rounded=0;sketch=1;jumpSize=6;orthogonalLoop=1;jettySize=auto;html=1;fontColor=none;strokeColor=#000000;" edge="1" parent="1">
          <mxGeometry relative="1" as="geometry">
            <mxPoint x="880" y="180" as="targetPoint" />
            <mxPoint x="740" y="180" as="sourcePoint" />
          </mxGeometry>
        </mxCell>
        <mxCell id="FI9FSAnp2MX3LIdGFpVo-61" value="social media links" style="text;html=1;strokeColor=none;fillColor=none;align=center;verticalAlign=middle;whiteSpace=wrap;rounded=0;shadow=0;sketch=1;fontColor=none;" vertex="1" parent="1">
          <mxGeometry x="900" y="170" width="120" height="20" as="geometry" />
        </mxCell>
        <mxCell id="FI9FSAnp2MX3LIdGFpVo-62" style="edgeStyle=orthogonalEdgeStyle;rounded=0;sketch=1;jumpSize=6;orthogonalLoop=1;jettySize=auto;html=1;fontColor=none;strokeColor=#000000;" edge="1" parent="1">
          <mxGeometry relative="1" as="geometry">
            <mxPoint x="880" y="400" as="targetPoint" />
            <mxPoint x="730" y="400" as="sourcePoint" />
          </mxGeometry>
        </mxCell>
        <mxCell id="FI9FSAnp2MX3LIdGFpVo-63" value="mobile phone mockups" style="text;html=1;strokeColor=none;fillColor=none;align=center;verticalAlign=middle;whiteSpace=wrap;rounded=0;shadow=0;sketch=1;fontColor=none;" vertex="1" parent="1">
          <mxGeometry x="890" y="390" width="120" height="20" as="geometry" />
        </mxCell>
        <mxCell id="FI9FSAnp2MX3LIdGFpVo-124" style="edgeStyle=orthogonalEdgeStyle;rounded=0;sketch=1;jumpSize=6;orthogonalLoop=1;jettySize=auto;html=1;fontColor=none;strokeColor=#000000;" edge="1" parent="1" source="FI9FSAnp2MX3LIdGFpVo-65">
          <mxGeometry relative="1" as="geometry">
            <mxPoint x="880" y="750" as="targetPoint" />
          </mxGeometry>
        </mxCell>
        <mxCell id="FI9FSAnp2MX3LIdGFpVo-65" value="" style="strokeWidth=1;shadow=0;dashed=0;align=center;html=1;shape=mxgraph.mockup.containers.browserWindow;rSize=0;strokeColor=#666666;strokeColor2=#008cff;strokeColor3=#c4c4c4;mainText=,;recursiveResize=0;container=0;" vertex="1" parent="1">
          <mxGeometry x="40" y="50" width="790" height="1400" as="geometry" />
        </mxCell>
        <mxCell id="FI9FSAnp2MX3LIdGFpVo-66" value="App Website" style="strokeWidth=1;shadow=0;dashed=0;align=center;html=1;shape=mxgraph.mockup.containers.anchor;fontSize=17;fontColor=#666666;align=left;" vertex="1" parent="1">
          <mxGeometry x="100" y="62" width="110" height="26" as="geometry" />
        </mxCell>
        <mxCell id="FI9FSAnp2MX3LIdGFpVo-67" value="https://www.mobile-app-website" style="strokeWidth=1;shadow=0;dashed=0;align=center;html=1;shape=mxgraph.mockup.containers.anchor;rSize=0;fontSize=17;fontColor=#666666;align=left;" vertex="1" parent="1">
          <mxGeometry x="170" y="110" width="250" height="26" as="geometry" />
        </mxCell>
        <mxCell id="FI9FSAnp2MX3LIdGFpVo-68" value="app name" style="text;html=1;strokeColor=none;fillColor=none;align=center;verticalAlign=middle;whiteSpace=wrap;rounded=0;" vertex="1" parent="1">
          <mxGeometry x="70" y="180" width="90" height="20" as="geometry" />
        </mxCell>
        <mxCell id="FI9FSAnp2MX3LIdGFpVo-69" value="(123) 457-7890" style="text;html=1;strokeColor=none;fillColor=none;align=center;verticalAlign=middle;whiteSpace=wrap;rounded=0;" vertex="1" parent="1">
          <mxGeometry x="200" y="180" width="90" height="20" as="geometry" />
        </mxCell>
        <mxCell id="FI9FSAnp2MX3LIdGFpVo-70" value="" style="ellipse;whiteSpace=wrap;html=1;aspect=fixed;" vertex="1" parent="1">
          <mxGeometry x="180" y="180" width="20" height="20" as="geometry" />
        </mxCell>
        <mxCell id="FI9FSAnp2MX3LIdGFpVo-71" value="i" style="text;html=1;strokeColor=none;fillColor=none;align=center;verticalAlign=middle;whiteSpace=wrap;rounded=0;" vertex="1" parent="1">
          <mxGeometry x="170" y="180" width="40" height="20" as="geometry" />
        </mxCell>
        <mxCell id="FI9FSAnp2MX3LIdGFpVo-82" value="" style="verticalLabelPosition=bottom;shadow=0;dashed=0;align=center;html=1;verticalAlign=top;strokeWidth=1;shape=mxgraph.mockup.markup.line;strokeColor=#999999;" vertex="1" parent="1">
          <mxGeometry x="40" y="630" width="790" height="20" as="geometry" />
        </mxCell>
        <mxCell id="FI9FSAnp2MX3LIdGFpVo-83" value="" style="ellipse;whiteSpace=wrap;html=1;aspect=fixed;" vertex="1" parent="1">
          <mxGeometry x="130" y="250" width="60" height="60" as="geometry" />
        </mxCell>
        <mxCell id="FI9FSAnp2MX3LIdGFpVo-84" value="&lt;font style=&quot;font-size: 18px&quot;&gt;L&lt;/font&gt;" style="text;html=1;strokeColor=none;fillColor=none;align=center;verticalAlign=middle;whiteSpace=wrap;rounded=0;" vertex="1" parent="1">
          <mxGeometry x="130" y="260" width="60" height="40" as="geometry" />
        </mxCell>
        <mxCell id="FI9FSAnp2MX3LIdGFpVo-85" value="&lt;h1&gt;Heading&lt;/h1&gt;&lt;p&gt;Lorem ipsum dolor sit amet, consectetur adipisicing elit, sed do eiusmod tempor incididunt ut labore et dolore magna aliqua.&lt;/p&gt;" style="text;html=1;strokeColor=none;fillColor=none;spacing=5;spacingTop=-20;whiteSpace=wrap;overflow=hidden;rounded=0;" vertex="1" parent="1">
          <mxGeometry x="130" y="330" width="290" height="120" as="geometry" />
        </mxCell>
        <mxCell id="FI9FSAnp2MX3LIdGFpVo-86" value="&lt;font color=&quot;#000000&quot;&gt;Button Text&lt;/font&gt;" style="strokeWidth=1;shadow=0;dashed=0;align=center;html=1;shape=mxgraph.mockup.buttons.button;strokeColor=#666666;mainText=;buttonStyle=round;fontSize=17;fontStyle=1;whiteSpace=wrap;fontColor=#FFFFFF;fillColor=none;sketch=1;" vertex="1" parent="1">
          <mxGeometry x="135" y="450" width="110" height="40" as="geometry" />
        </mxCell>
        <mxCell id="FI9FSAnp2MX3LIdGFpVo-87" value="&lt;font color=&quot;#000000&quot;&gt;Button Text&lt;/font&gt;" style="strokeWidth=1;shadow=0;dashed=0;align=center;html=1;shape=mxgraph.mockup.buttons.button;strokeColor=#666666;fontColor=#ffffff;mainText=;buttonStyle=round;fontSize=17;fontStyle=1;whiteSpace=wrap;fillColor=none;sketch=1;" vertex="1" parent="1">
          <mxGeometry x="290" y="450" width="110" height="40" as="geometry" />
        </mxCell>
        <mxCell id="FI9FSAnp2MX3LIdGFpVo-88" value="" style="triangle;whiteSpace=wrap;html=1;fontColor=none;fillColor=none;rotation=90;sketch=1;rounded=0;shadow=0;" vertex="1" parent="1">
          <mxGeometry x="425" y="600" width="20" height="30" as="geometry" />
        </mxCell>
        <mxCell id="FI9FSAnp2MX3LIdGFpVo-89" value="" style="shape=mxgraph.mockup.markup.scratchOut;shadow=0;dashed=0;html=1;strokeColor=#999999;strokeWidth=4;rounded=0;sketch=1;fontColor=none;fillColor=none;" vertex="1" parent="1">
          <mxGeometry x="360" y="170" width="155" height="60" as="geometry" />
        </mxCell>
        <mxCell id="FI9FSAnp2MX3LIdGFpVo-95" value="" style="ellipse;whiteSpace=wrap;html=1;aspect=fixed;rounded=0;shadow=0;sketch=1;fontColor=none;fillColor=none;" vertex="1" parent="1">
          <mxGeometry x="110" y="680" width="80" height="80" as="geometry" />
        </mxCell>
        <mxCell id="FI9FSAnp2MX3LIdGFpVo-96" value="" style="ellipse;whiteSpace=wrap;html=1;aspect=fixed;rounded=0;shadow=0;sketch=1;fontColor=none;fillColor=none;" vertex="1" parent="1">
          <mxGeometry x="670" y="680" width="80" height="80" as="geometry" />
        </mxCell>
        <mxCell id="FI9FSAnp2MX3LIdGFpVo-97" value="" style="ellipse;whiteSpace=wrap;html=1;aspect=fixed;rounded=0;shadow=0;sketch=1;fontColor=none;fillColor=none;" vertex="1" parent="1">
          <mxGeometry x="385" y="680" width="80" height="80" as="geometry" />
        </mxCell>
        <mxCell id="FI9FSAnp2MX3LIdGFpVo-98" value="&lt;h1 style=&quot;text-align: center&quot;&gt;Heading&lt;/h1&gt;&lt;p&gt;Lorem ipsum dolor sit amet, consectetur adipisicing elit, sed do eiusmod tempor incididunt ut labore et dolore magna aliqua.&lt;/p&gt;" style="text;html=1;strokeColor=none;fillColor=none;spacing=5;spacingTop=-20;whiteSpace=wrap;overflow=hidden;rounded=0;shadow=0;sketch=1;fontColor=none;" vertex="1" parent="1">
          <mxGeometry x="60" y="790" width="190" height="120" as="geometry" />
        </mxCell>
        <mxCell id="FI9FSAnp2MX3LIdGFpVo-99" value="&lt;h1 style=&quot;text-align: center&quot;&gt;Heading&lt;/h1&gt;&lt;p&gt;Lorem ipsum dolor sit amet, consectetur adipisicing elit, sed do eiusmod tempor incididunt ut labore et dolore magna aliqua.&lt;/p&gt;" style="text;html=1;strokeColor=none;fillColor=none;spacing=5;spacingTop=-20;whiteSpace=wrap;overflow=hidden;rounded=0;shadow=0;sketch=1;fontColor=none;" vertex="1" parent="1">
          <mxGeometry x="615" y="800" width="190" height="120" as="geometry" />
        </mxCell>
        <mxCell id="FI9FSAnp2MX3LIdGFpVo-100" value="&lt;h1 style=&quot;text-align: center&quot;&gt;Heading&lt;/h1&gt;&lt;p&gt;Lorem ipsum dolor sit amet, consectetur adipisicing elit, sed do eiusmod tempor incididunt ut labore et dolore magna aliqua.&lt;/p&gt;" style="text;html=1;strokeColor=none;fillColor=none;spacing=5;spacingTop=-20;whiteSpace=wrap;overflow=hidden;rounded=0;shadow=0;sketch=1;fontColor=none;" vertex="1" parent="1">
          <mxGeometry x="330" y="800" width="190" height="120" as="geometry" />
        </mxCell>
        <mxCell id="FI9FSAnp2MX3LIdGFpVo-101" value="" style="verticalLabelPosition=bottom;shadow=0;dashed=0;align=center;html=1;verticalAlign=top;strokeWidth=1;shape=mxgraph.mockup.markup.line;strokeColor=#999999;" vertex="1" parent="1">
          <mxGeometry x="40" y="930" width="790" height="20" as="geometry" />
        </mxCell>
        <mxCell id="FI9FSAnp2MX3LIdGFpVo-109" value="" style="group" vertex="1" connectable="0" parent="1">
          <mxGeometry x="780" y="1400" width="30" height="30" as="geometry" />
        </mxCell>
        <mxCell id="FI9FSAnp2MX3LIdGFpVo-102" value="" style="ellipse;whiteSpace=wrap;html=1;aspect=fixed;rounded=0;shadow=0;sketch=1;fontColor=none;fillColor=none;" vertex="1" parent="FI9FSAnp2MX3LIdGFpVo-109">
          <mxGeometry width="30" height="30" as="geometry" />
        </mxCell>
        <mxCell id="FI9FSAnp2MX3LIdGFpVo-103" value="" style="triangle;whiteSpace=wrap;html=1;rounded=0;shadow=0;sketch=1;fontColor=none;fillColor=none;rotation=-90;" vertex="1" parent="FI9FSAnp2MX3LIdGFpVo-109">
          <mxGeometry x="10" y="5" width="10" height="20" as="geometry" />
        </mxCell>
        <mxCell id="FI9FSAnp2MX3LIdGFpVo-112" value="" style="group" vertex="1" connectable="0" parent="1">
          <mxGeometry x="460" y="250" width="280" height="320" as="geometry" />
        </mxCell>
        <mxCell id="FI9FSAnp2MX3LIdGFpVo-72" value="" style="verticalLabelPosition=bottom;shadow=0;dashed=0;align=center;html=1;verticalAlign=top;strokeWidth=1;shape=mxgraph.mockup.graphics.simpleIcon;strokeColor=#999999;" vertex="1" parent="FI9FSAnp2MX3LIdGFpVo-112">
          <mxGeometry x="110" width="170" height="320" as="geometry" />
        </mxCell>
        <mxCell id="FI9FSAnp2MX3LIdGFpVo-73" value="" style="verticalLabelPosition=bottom;shadow=0;dashed=0;align=center;html=1;verticalAlign=top;strokeWidth=1;shape=mxgraph.mockup.graphics.simpleIcon;strokeColor=#999999;" vertex="1" parent="FI9FSAnp2MX3LIdGFpVo-112">
          <mxGeometry width="100" height="320" as="geometry" />
        </mxCell>
        <mxCell id="FI9FSAnp2MX3LIdGFpVo-113" value="" style="group" vertex="1" connectable="0" parent="1">
          <mxGeometry x="630" y="180" width="120" height="30" as="geometry" />
        </mxCell>
        <mxCell id="FI9FSAnp2MX3LIdGFpVo-74" value="" style="ellipse;whiteSpace=wrap;html=1;aspect=fixed;" vertex="1" parent="FI9FSAnp2MX3LIdGFpVo-113">
          <mxGeometry width="20" height="20" as="geometry" />
        </mxCell>
        <mxCell id="FI9FSAnp2MX3LIdGFpVo-75" value="" style="ellipse;whiteSpace=wrap;html=1;aspect=fixed;" vertex="1" parent="FI9FSAnp2MX3LIdGFpVo-113">
          <mxGeometry x="60" width="20" height="20" as="geometry" />
        </mxCell>
        <mxCell id="FI9FSAnp2MX3LIdGFpVo-76" value="" style="ellipse;whiteSpace=wrap;html=1;aspect=fixed;" vertex="1" parent="FI9FSAnp2MX3LIdGFpVo-113">
          <mxGeometry x="90" width="20" height="20" as="geometry" />
        </mxCell>
        <mxCell id="FI9FSAnp2MX3LIdGFpVo-77" value="" style="ellipse;whiteSpace=wrap;html=1;aspect=fixed;" vertex="1" parent="FI9FSAnp2MX3LIdGFpVo-113">
          <mxGeometry x="30" width="20" height="20" as="geometry" />
        </mxCell>
        <mxCell id="FI9FSAnp2MX3LIdGFpVo-81" value="i" style="text;html=1;strokeColor=none;fillColor=none;align=center;verticalAlign=middle;whiteSpace=wrap;rounded=0;" vertex="1" parent="FI9FSAnp2MX3LIdGFpVo-113">
          <mxGeometry x="20" width="40" height="20" as="geometry" />
        </mxCell>
        <mxCell id="FI9FSAnp2MX3LIdGFpVo-114" value="" style="group" vertex="1" connectable="0" parent="FI9FSAnp2MX3LIdGFpVo-113">
          <mxGeometry x="-10" width="130" height="20" as="geometry" />
        </mxCell>
        <mxCell id="FI9FSAnp2MX3LIdGFpVo-78" value="f" style="text;html=1;strokeColor=none;fillColor=none;align=center;verticalAlign=middle;whiteSpace=wrap;rounded=0;" vertex="1" parent="FI9FSAnp2MX3LIdGFpVo-114">
          <mxGeometry width="40" height="20" as="geometry" />
        </mxCell>
        <mxCell id="FI9FSAnp2MX3LIdGFpVo-80" value="g" style="text;html=1;strokeColor=none;fillColor=none;align=center;verticalAlign=middle;whiteSpace=wrap;rounded=0;" vertex="1" parent="FI9FSAnp2MX3LIdGFpVo-114">
          <mxGeometry x="60" width="40" height="20" as="geometry" />
        </mxCell>
        <mxCell id="FI9FSAnp2MX3LIdGFpVo-79" value="p" style="text;html=1;strokeColor=none;fillColor=none;align=center;verticalAlign=middle;whiteSpace=wrap;rounded=0;" vertex="1" parent="FI9FSAnp2MX3LIdGFpVo-114">
          <mxGeometry x="90" width="40" height="20" as="geometry" />
        </mxCell>
        <mxCell id="FI9FSAnp2MX3LIdGFpVo-115" value="&lt;h1&gt;Heading&lt;/h1&gt;&lt;p&gt;Lorem ipsum dolor sit amet, consectetur adipisicing elit, sed do eiusmod tempor incididunt ut labore et dolore magna aliqua.&lt;/p&gt;" style="text;html=1;strokeColor=none;fillColor=none;spacing=5;spacingTop=-20;whiteSpace=wrap;overflow=hidden;rounded=0;shadow=0;sketch=1;fontColor=none;align=center;" vertex="1" parent="1">
          <mxGeometry x="225" y="950" width="400" height="90" as="geometry" />
        </mxCell>
        <mxCell id="FI9FSAnp2MX3LIdGFpVo-122" style="edgeStyle=orthogonalEdgeStyle;rounded=0;sketch=1;jumpSize=6;orthogonalLoop=1;jettySize=auto;html=1;fontColor=none;strokeColor=#000000;" edge="1" parent="1" source="FI9FSAnp2MX3LIdGFpVo-116">
          <mxGeometry relative="1" as="geometry">
            <mxPoint x="881.6000366210938" y="1215" as="targetPoint" />
          </mxGeometry>
        </mxCell>
        <mxCell id="FI9FSAnp2MX3LIdGFpVo-116" value="" style="verticalLabelPosition=bottom;shadow=0;dashed=0;align=center;html=1;verticalAlign=top;strokeWidth=1;shape=mxgraph.mockup.navigation.coverFlow;strokeColor=#999999;rounded=0;sketch=1;fontColor=none;fillColor=none;" vertex="1" parent="1">
          <mxGeometry x="165" y="1090" width="520" height="250" as="geometry" />
        </mxCell>
        <mxCell id="FI9FSAnp2MX3LIdGFpVo-123" value="screen shots of different screen for mobile mockup" style="text;html=1;strokeColor=none;fillColor=none;align=center;verticalAlign=middle;whiteSpace=wrap;rounded=0;shadow=0;sketch=1;fontColor=none;" vertex="1" parent="1">
          <mxGeometry x="890" y="1205" width="180" height="20" as="geometry" />
        </mxCell>
        <mxCell id="FI9FSAnp2MX3LIdGFpVo-125" value="why this app is good" style="text;html=1;strokeColor=none;fillColor=none;align=center;verticalAlign=middle;whiteSpace=wrap;rounded=0;shadow=0;sketch=1;fontColor=none;" vertex="1" parent="1">
          <mxGeometry x="880" y="740" width="120" height="20" as="geometry" />
        </mxCell>
        <mxCell id="FI9FSAnp2MX3LIdGFpVo-127" style="edgeStyle=orthogonalEdgeStyle;rounded=0;sketch=1;jumpSize=6;orthogonalLoop=1;jettySize=auto;html=1;fontColor=none;strokeColor=#000000;" edge="1" parent="1" source="FI9FSAnp2MX3LIdGFpVo-126">
          <mxGeometry relative="1" as="geometry">
            <mxPoint x="-30" y="995" as="targetPoint" />
          </mxGeometry>
        </mxCell>
        <mxCell id="FI9FSAnp2MX3LIdGFpVo-126" value="" style="shape=mxgraph.mockup.markup.scratchOut;shadow=0;dashed=0;html=1;strokeColor=#999999;strokeWidth=4;rounded=0;sketch=1;fontColor=none;fillColor=none;" vertex="1" parent="1">
          <mxGeometry x="55" y="965" width="155" height="60" as="geometry" />
        </mxCell>
        <mxCell id="FI9FSAnp2MX3LIdGFpVo-128" value="darker colour scheme" style="text;html=1;strokeColor=none;fillColor=none;align=center;verticalAlign=middle;whiteSpace=wrap;rounded=0;shadow=0;sketch=1;fontColor=none;" vertex="1" parent="1">
          <mxGeometry x="-170" y="985" width="120" height="20" as="geometry" />
        </mxCell>
        <mxCell id="FI9FSAnp2MX3LIdGFpVo-130" value="" style="verticalLabelPosition=bottom;shadow=0;dashed=0;align=center;html=1;verticalAlign=top;strokeWidth=1;shape=mxgraph.mockup.navigation.pageControl;fillColor=#999999;strokeColor=#ddeeff;rounded=0;sketch=1;fontColor=none;" vertex="1" parent="1">
          <mxGeometry x="375" y="1360" width="100" height="30" as="geometry" />
        </mxCell>
      </root>
    </mxGraphModel>
  </diagram>
</mxfile>
